<svg width="208" height="44" viewBox="0 0 208 44" fill="none" xmlns="http://www.w3.org/2000/svg">
<path d="M29.76 12.536L25.792 35H20.32L22.72 21.528L15.296 35H10.88L8.192 21.464L5.824 35H0.352L4.32 12.536H10.784L14.368 28.088L23.328 12.536H29.76ZM36.959 17.144L39.135 28.312L45.215 17.144H51.135L35.295 43.48H29.407L35.103 34.392L30.879 17.144H36.959Z" fill="black"/>
<path d="M75.16 19.768C74.9467 21.0693 74.4453 22.264 73.656 23.352C72.8667 24.4187 71.7893 25.2827 70.424 25.944C69.08 26.6053 67.4907 26.936 65.656 26.936H62.264L60.824 35H55.352L59.32 12.536H68.184C70.5307 12.536 72.3013 13.0587 73.496 14.104C74.6907 15.128 75.288 16.5253 75.288 18.296C75.288 18.8293 75.2453 19.32 75.16 19.768ZM65.976 22.648C68.024 22.648 69.2293 21.688 69.592 19.768C69.6347 19.4267 69.656 19.1813 69.656 19.032C69.656 18.3493 69.432 17.8267 68.984 17.464C68.5573 17.08 67.896 16.888 67 16.888H64.024L63.032 22.648H65.976ZM83.4808 35.256C81.9448 35.256 80.5794 34.9467 79.3848 34.328C78.1901 33.7093 77.2621 32.8347 76.6008 31.704C75.9608 30.5733 75.6408 29.2613 75.6408 27.768C75.6408 25.7413 76.1208 23.896 77.0808 22.232C78.0408 20.568 79.3634 19.2667 81.0488 18.328C82.7341 17.368 84.6114 16.888 86.6808 16.888C88.2168 16.888 89.5821 17.208 90.7768 17.848C91.9928 18.4667 92.9314 19.3413 93.5928 20.472C94.2541 21.6027 94.5848 22.9147 94.5848 24.408C94.5848 26.456 94.0941 28.312 93.1128 29.976C92.1528 31.6187 90.8194 32.9093 89.1128 33.848C87.4274 34.7867 85.5501 35.256 83.4808 35.256ZM84.2488 30.552C85.1448 30.552 85.9448 30.2853 86.6488 29.752C87.3741 29.1973 87.9288 28.4933 88.3128 27.64C88.7181 26.7653 88.9208 25.8587 88.9208 24.92C88.9208 23.8533 88.6328 23.032 88.0568 22.456C87.4808 21.88 86.7554 21.592 85.8808 21.592C84.9634 21.592 84.1528 21.8693 83.4488 22.424C82.7661 22.9573 82.2328 23.6613 81.8488 24.536C81.4648 25.4107 81.2728 26.328 81.2728 27.288C81.2728 28.3333 81.5501 29.144 82.1048 29.72C82.6594 30.2747 83.3741 30.552 84.2488 30.552ZM103.728 20.376C104.56 19.3093 105.509 18.4773 106.576 17.88C107.664 17.2613 108.794 16.952 109.968 16.952L108.944 22.744H107.44C106.074 22.744 104.997 23.0427 104.208 23.64C103.418 24.216 102.896 25.24 102.64 26.712L101.168 35H95.6958L98.8318 17.144H104.304L103.728 20.376ZM116.807 28.856C116.786 28.9627 116.775 29.1013 116.775 29.272C116.775 29.656 116.882 29.9333 117.095 30.104C117.33 30.2747 117.703 30.36 118.215 30.36H120.167L119.335 35H116.551C112.967 35 111.175 33.496 111.175 30.488C111.175 30.04 111.229 29.4747 111.335 28.792L112.615 21.688H110.439L111.239 17.144H113.415L114.183 12.792H119.655L118.887 17.144H122.471L121.671 21.688H118.087L116.807 28.856ZM134.863 14.584C133.818 14.52 133.05 14.6693 132.559 15.032C132.09 15.3947 131.77 16.0453 131.599 16.984L131.567 17.144H134.511L133.711 21.688H130.767L128.431 35H122.927L125.263 21.688H123.279L124.079 17.144H126.063L126.159 16.632C126.565 14.4347 127.493 12.7707 128.943 11.64C130.415 10.488 132.367 9.912 134.799 9.912C135.183 9.912 135.471 9.92267 135.663 9.944L134.863 14.584ZM142.075 35.256C140.539 35.256 139.173 34.9467 137.979 34.328C136.784 33.7093 135.856 32.8347 135.195 31.704C134.555 30.5733 134.235 29.2613 134.235 27.768C134.235 25.7413 134.715 23.896 135.675 22.232C136.635 20.568 137.957 19.2667 139.643 18.328C141.328 17.368 143.205 16.888 145.275 16.888C146.811 16.888 148.176 17.208 149.371 17.848C150.587 18.4667 151.525 19.3413 152.187 20.472C152.848 21.6027 153.179 22.9147 153.179 24.408C153.179 26.456 152.688 28.312 151.707 29.976C150.747 31.6187 149.413 32.9093 147.707 33.848C146.021 34.7867 144.144 35.256 142.075 35.256ZM142.843 30.552C143.739 30.552 144.539 30.2853 145.243 29.752C145.968 29.1973 146.523 28.4933 146.907 27.64C147.312 26.7653 147.515 25.8587 147.515 24.92C147.515 23.8533 147.227 23.032 146.651 22.456C146.075 21.88 145.349 21.592 144.475 21.592C143.557 21.592 142.747 21.8693 142.043 22.424C141.36 22.9573 140.827 23.6613 140.443 24.536C140.059 25.4107 139.867 26.328 139.867 27.288C139.867 28.3333 140.144 29.144 140.699 29.72C141.253 30.2747 141.968 30.552 142.843 30.552ZM163.954 11.32L159.762 35H154.29L158.482 11.32H163.954ZM169.967 15.288C169.114 15.288 168.431 15.064 167.919 14.616C167.428 14.1467 167.183 13.56 167.183 12.856C167.183 11.896 167.556 11.0747 168.303 10.392C169.05 9.70933 169.956 9.368 171.023 9.368C171.876 9.368 172.548 9.60267 173.039 10.072C173.53 10.52 173.775 11.1067 173.775 11.832C173.775 12.7707 173.402 13.5813 172.655 14.264C171.908 14.9467 171.012 15.288 169.967 15.288ZM172.335 17.144L169.199 35H163.727L166.863 17.144H172.335ZM181.325 35.256C179.789 35.256 178.423 34.9467 177.229 34.328C176.034 33.7093 175.106 32.8347 174.445 31.704C173.805 30.5733 173.485 29.2613 173.485 27.768C173.485 25.7413 173.965 23.896 174.925 22.232C175.885 20.568 177.207 19.2667 178.893 18.328C180.578 17.368 182.455 16.888 184.525 16.888C186.061 16.888 187.426 17.208 188.621 17.848C189.837 18.4667 190.775 19.3413 191.437 20.472C192.098 21.6027 192.429 22.9147 192.429 24.408C192.429 26.456 191.938 28.312 190.957 29.976C189.997 31.6187 188.663 32.9093 186.957 33.848C185.271 34.7867 183.394 35.256 181.325 35.256ZM182.093 30.552C182.989 30.552 183.789 30.2853 184.493 29.752C185.218 29.1973 185.773 28.4933 186.157 27.64C186.562 26.7653 186.765 25.8587 186.765 24.92C186.765 23.8533 186.477 23.032 185.901 22.456C185.325 21.88 184.599 21.592 183.725 21.592C182.807 21.592 181.997 21.8693 181.293 22.424C180.61 22.9573 180.077 23.6613 179.693 24.536C179.309 25.4107 179.117 26.328 179.117 27.288C179.117 28.3333 179.394 29.144 179.949 29.72C180.503 30.2747 181.218 30.552 182.093 30.552Z" fill="#116A7B"/>
</svg>
